{"title":"Cop Out 2010 DVDrip English Klam","uid":6397212,"size":1578961909,"categoryP":"video","categoryS":"movies","magnet":"?xt=urn:btih:42224f89f0edb06eb3799eded7c36587fd115110&amp;dn=Cop+Out+2010+DVDrip+English+Klam&amp;tr=udp%3A%2F%2Ftracker.openbittorrent.com%3A80&amp;tr=udp%3A%2F%2Fopen.demonii.com%3A1337&amp;tr=udp%3A%2F%2Ftracker.coppersurfer.tk%3A6969&amp;tr=udp%3A%2F%2Fexodus.desync.com%3A6969","seeders":1,"leechers":1,"uploader":"Klambake","files":-1,"time":1305551623,"description":"With: Bruce Willis, Tracy Morgan and Seann William Scott\n\nTwee ervaren partners van de New York Police Department moeten het opnemen tegen een meedogenloze crimineel in hun jacht op een zeldzaam honkbalkaartje. Voor veteraan Jimmy (Bruce Willis) is het kaartje zijn enige hoop te kunnen betalen voor de aankomende bruiloft van zijn dochter (Michelle Trachtenberg). Hij wordt bij deze bijzondere missie vergezeld door Paul (Tracy Morgan).\n\nAfter a clumsy operation trying to capture a drug dealer, the N.Y.P.D Detectives Jimmy Monroe and Paul Hodges are suspended for one month by their Captain Romans. Jimmy decides to sell his rare baseball card to pay for his daughter's expensive wedding while his jealous partner believes that his wife is cheating on him with their next-door neighbor. When Jimmy sells his card to a memorabilia store, the place is burgled by two small-time thieves and the detective loses his card. They track down the thieves. \n\nGeneral:\n\nComplete name                    : Cop Out\\Cop Out.avi\nFormat                           : AVI\nFormat/Info                      : Audio Video Interleave\nFile size                        : 1.47 GiB\nDuration                         : 1h 43mn\nOverall bit rate                 : 2 041 Kbps\n\nVideo:\n\nFormat                           : MPEG-4 Visual\nFormat profile                   : Simple@L3\nFormat settings, BVOP            : No\nFormat settings, QPel            : No\nFormat settings, GMC             : No warppoints\nFormat settings, Matrix          : Default (H.263)\nCodec ID                         : XVID\nCodec ID/Hint                    : XviD\nDuration                         : 1h 43mn\nBit rate                         : 1 646 Kbps\nWidth                            : 720 pixels\nHeight                           : 304 pixels\nDisplay aspect ratio             : 2.35:1\nFrame rate                       : 25.000 fps\nColor space                      : YUV\nChroma subsampling               : 4:2:0\nBit depth                        : 8 bits\nScan type                        : Progressive\nBits/(Pixel*Frame)               : 0.301\nStream size                      : 1.18 GiB (81%)\nWriting library                  : XviD 1.1.2 (UTC 2006-11-01)\n\nAudio:\n\nFormat                           : AC-3\nFormat/Info                      : Audio Coding 3\nMode extension                   : CM (complete main)\nCodec ID                         : 2000\nDuration                         : 1h 43mn\nBit rate mode                    : Constant\nBit rate                         : 384 Kbps\nChannel(s)                       : 6 channels\nChannel positions                : Front: L C R, Side: L R, LFE\nSampling rate                    : 48.0 KHz\nBit depth                        : 16 bits\nStream size                      : 283 MiB (19%)\nAlignment                        : Aligned on interleaves\nInterleave, duration             : 32 ms (0.80 video frame)\nInterleave, preload duration     : 768 ms\n\n","torrent":{"xt":"urn:btih:42224f89f0edb06eb3799eded7c36587fd115110","amp;dn":"Cop+Out+2010+DVDrip+English+Klam","amp;tr":["udp%3A%2F%2Ftracker.openbittorrent.com%3A80","udp%3A%2F%2Fopen.demonii.com%3A1337","udp%3A%2F%2Ftracker.coppersurfer.tk%3A6969","udp%3A%2F%2Fexodus.desync.com%3A6969"],"infoHash":"42224f89f0edb06eb3799eded7c36587fd115110","infoHashBuffer":{"type":"Buffer","data":[66,34,79,137,240,237,176,110,179,121,158,222,215,195,101,135,253,17,81,16]},"announce":[],"urlList":[]}}